<svg xmlns="http://www.w3.org/2000/svg" xmlns:xlink="http://www.w3.org/1999/xlink" contentStyleType="text/css" data-diagram-type="DESCRIPTION" height="521px" preserveAspectRatio="none" style="width:1253px;height:521px;background:#FFFFFF;" version="1.1" viewBox="0 0 1253 521" width="1253px" zoomAndPan="magnify"><title>Decentralized Voting System - Architecture (Simplified)</title><defs/><g><g class="title" data-source-line="1"><text fill="#000000" font-family="sans-serif" font-size="14" font-weight="bold" lengthAdjust="spacing" textLength="440.2549" x="399.3726" y="22.9951">Decentralized Voting System - Architecture (Simplified)</text></g><!--cluster Browser--><g class="cluster" data-entity="Browser" data-source-line="12" data-uid="ent0004" id="cluster_Browser"><polygon fill="none" points="207,53.2969,217,43.2969,596,43.2969,596,228.2969,586,238.2969,207,238.2969,207,53.2969" style="stroke:#181818;stroke-width:1;"/><line style="stroke:#181818;stroke-width:1;" x1="586" x2="596" y1="53.2969" y2="43.2969"/><line style="stroke:#181818;stroke-width:1;" x1="207" x2="586" y1="53.2969" y2="53.2969"/><line style="stroke:#181818;stroke-width:1;" x1="586" x2="586" y1="53.2969" y2="238.2969"/><text fill="#000000" font-family="sans-serif" font-size="14" font-weight="bold" lengthAdjust="spacing" textLength="64.8594" x="365.0703" y="69.292">Browser</text></g><!--cluster Eth--><g class="cluster" data-entity="Eth" data-source-line="19" data-uid="ent0008" id="cluster_Eth"><polygon fill="none" points="770.5,196.2969,780.5,186.2969,1236,186.2969,1236,299.2969,1226,309.2969,770.5,309.2969,770.5,196.2969" style="stroke:#181818;stroke-width:1;"/><line style="stroke:#181818;stroke-width:1;" x1="1226" x2="1236" y1="196.2969" y2="186.2969"/><line style="stroke:#181818;stroke-width:1;" x1="770.5" x2="1226" y1="196.2969" y2="196.2969"/><line style="stroke:#181818;stroke-width:1;" x1="1226" x2="1226" y1="196.2969" y2="309.2969"/><text fill="#000000" font-family="sans-serif" font-size="14" font-weight="bold" lengthAdjust="spacing" textLength="148.2168" x="925.1416" y="212.292">Ethereum Network</text></g><!--cluster Dev--><g class="cluster" data-entity="Dev" data-source-line="24" data-uid="ent0011" id="cluster_Dev"><polygon fill="none" points="475.5,343.2969,485.5,333.2969,942,333.2969,942,446.2969,932,456.2969,475.5,456.2969,475.5,343.2969" style="stroke:#181818;stroke-width:1;"/><line style="stroke:#181818;stroke-width:1;" x1="932" x2="942" y1="343.2969" y2="333.2969"/><line style="stroke:#181818;stroke-width:1;" x1="475.5" x2="932" y1="343.2969" y2="343.2969"/><line style="stroke:#181818;stroke-width:1;" x1="932" x2="932" y1="343.2969" y2="456.2969"/><text fill="#000000" font-family="sans-serif" font-size="14" font-weight="bold" lengthAdjust="spacing" textLength="77.0342" x="666.2329" y="359.292">Dev Tools</text></g><!--entity FE--><g class="entity" data-entity="FE" data-source-line="13" data-uid="ent0005" id="entity_FE"><rect fill="#F1F1F1" height="36.2969" rx="2.5" ry="2.5" style="stroke:#181818;stroke-width:0.5;" width="78.9326" x="223" y="133.2969"/><text fill="#000000" font-family="sans-serif" font-size="14" lengthAdjust="spacing" textLength="58.9326" x="233" y="156.292">React UI</text></g><!--entity Web3Client--><g class="entity" data-entity="Web3Client" data-source-line="14" data-uid="ent0006" id="entity_Web3Client"><rect fill="#F1F1F1" height="36.2969" rx="2.5" ry="2.5" style="stroke:#181818;stroke-width:0.5;" width="110.9863" x="469" y="133.2969"/><text fill="#000000" font-family="sans-serif" font-size="14" lengthAdjust="spacing" textLength="90.9863" x="479" y="156.292">Web3 Helper</text></g><!--entity Node--><g class="entity" data-entity="Node" data-source-line="20" data-uid="ent0009" id="entity_Node"><rect fill="#F1F1F1" height="36.2969" rx="2.5" ry="2.5" style="stroke:#181818;stroke-width:0.5;" width="129.6895" x="786.5" y="241.2969"/><text fill="#000000" font-family="sans-serif" font-size="14" lengthAdjust="spacing" textLength="109.6895" x="796.5" y="264.292">Ethereum Node</text></g><!--entity Contract--><g class="entity" data-entity="Contract" data-source-line="21" data-uid="ent0010" id="entity_Contract"><rect fill="#F1F1F1" height="52.5938" rx="2.5" ry="2.5" style="stroke:#181818;stroke-width:0.5;" width="127.0234" x="1093" y="235.7969"/><text fill="#000000" font-family="sans-serif" font-size="14" lengthAdjust="spacing" textLength="46.4365" x="1103" y="258.792">Polling</text><text fill="#000000" font-family="sans-serif" font-size="14" lengthAdjust="spacing" textLength="107.0234" x="1103" y="275.0889">Smart Contract</text></g><!--entity Truffle--><g class="entity" data-entity="Truffle" data-source-line="25" data-uid="ent0012" id="entity_Truffle"><rect fill="#F1F1F1" height="36.2969" rx="2.5" ry="2.5" style="stroke:#181818;stroke-width:0.5;" width="65.541" x="491.5" y="387.2969"/><text fill="#000000" font-family="sans-serif" font-size="14" lengthAdjust="spacing" textLength="45.541" x="501.5" y="410.292">Truffle</text></g><!--entity NetDev--><g class="entity" data-entity="NetDev" data-source-line="26" data-uid="ent0013" id="entity_NetDev"><rect fill="#F1F1F1" height="36.2969" rx="2.5" ry="2.5" style="stroke:#181818;stroke-width:0.5;" width="148.6045" x="777" y="373.2969"/><text fill="#000000" font-family="sans-serif" font-size="14" lengthAdjust="spacing" textLength="128.6045" x="787" y="396.292">Ganache / Testnet</text></g><!--entity Creator--><g class="entity" data-entity="Creator" data-source-line="9" data-uid="ent0002" id="entity_Creator"><ellipse cx="46.8857" cy="66.7969" fill="#F1F1F1" rx="8" ry="8" style="stroke:#181818;stroke-width:0.5;"/><path d="M46.8857,74.7969 L46.8857,101.7969 M33.8857,82.7969 L59.8857,82.7969 M46.8857,101.7969 L33.8857,116.7969 M46.8857,101.7969 L59.8857,116.7969" fill="none" style="stroke:#181818;stroke-width:0.5;"/><text fill="#000000" font-family="sans-serif" font-size="14" lengthAdjust="spacing" textLength="81.7715" x="6" y="131.292">Poll Creator</text></g><!--entity Voter--><g class="entity" data-entity="Voter" data-source-line="10" data-uid="ent0003" id="entity_Voter"><ellipse cx="47.0005" cy="177.7969" fill="#F1F1F1" rx="8" ry="8" style="stroke:#181818;stroke-width:0.5;"/><path d="M47.0005,185.7969 L47.0005,212.7969 M34.0005,193.7969 L60.0005,193.7969 M47.0005,212.7969 L34.0005,227.7969 M47.0005,212.7969 L60.0005,227.7969" fill="none" style="stroke:#181818;stroke-width:0.5;"/><text fill="#000000" font-family="sans-serif" font-size="14" lengthAdjust="spacing" textLength="38.001" x="28" y="242.292">Voter</text></g><!--entity MetaMask--><g class="entity" data-entity="MetaMask" data-source-line="17" data-uid="ent0007" id="entity_MetaMask"><polygon fill="#F1F1F1" points="796,57.7969,806,47.7969,906.8203,47.7969,906.8203,100.3906,896.8203,110.3906,796,110.3906,796,57.7969" style="stroke:#181818;stroke-width:0.5;"/><line style="stroke:#181818;stroke-width:0.5;" x1="896.8203" x2="906.8203" y1="57.7969" y2="47.7969"/><line style="stroke:#181818;stroke-width:0.5;" x1="796" x2="896.8203" y1="57.7969" y2="57.7969"/><line style="stroke:#181818;stroke-width:0.5;" x1="896.8203" x2="896.8203" y1="57.7969" y2="110.3906"/><text fill="#000000" font-family="sans-serif" font-size="14" lengthAdjust="spacing" textLength="70.8203" x="811" y="80.792">MetaMask</text><text fill="#000000" font-family="sans-serif" font-size="14" lengthAdjust="spacing" textLength="44.3037" x="811" y="97.0889">Wallet</text></g><!--link Creator to FE--><g class="link" data-entity-1="Creator" data-entity-2="FE" data-source-line="30" data-uid="lnk14" id="link_Creator_FE"><path d="M88.16,106.6369 C126.81,116.5969 179.0499,130.0494 217.1499,139.8694" fill="none" id="Creator-to-FE" style="stroke:#181818;stroke-width:1;"/><polygon fill="#181818" points="222.96,141.3669,215.2432,135.2472,218.1182,140.1189,213.2465,142.994,222.96,141.3669" style="stroke:#181818;stroke-width:1;"/><text fill="#000000" font-family="sans-serif" font-size="13" lengthAdjust="spacing" textLength="71.043" x="119" y="112.3638">Create poll</text></g><!--link Voter to FE--><g class="link" data-entity-1="Voter" data-entity-2="FE" data-source-line="31" data-uid="lnk15" id="link_Voter_FE"><path d="M66.13,203.1569 C93.35,196.8869 146.35,184.3969 191,172.2969 C201.35,169.4869 206.748,167.9641 217.058,164.9041" fill="none" id="Voter-to-FE" style="stroke:#181818;stroke-width:1;"/><polygon fill="#181818" points="222.81,163.1969,213.0439,161.923,218.0167,164.6195,215.3201,169.5923,222.81,163.1969" style="stroke:#181818;stroke-width:1;"/><text fill="#000000" font-family="sans-serif" font-size="13" lengthAdjust="spacing" textLength="69.6021" x="120" y="153.3638">View polls,</text><text fill="#000000" font-family="sans-serif" font-size="13" lengthAdjust="spacing" textLength="59.8584" x="124.8718" y="168.4966">cast vote</text></g><!--link FE to Web3Client--><g class="link" data-entity-1="FE" data-entity-2="Web3Client" data-source-line="34" data-uid="lnk16" id="link_FE_Web3Client"><path d="M288.15,169.4669 C300.62,177.5569 316.39,186.1569 332,190.2969 C377.97,202.4669 392.55,200.4969 439,190.2969 C457.78,186.1669 472.0421,180.2253 487.6221,172.0853" fill="none" id="FE-to-Web3Client" style="stroke:#181818;stroke-width:1;"/><polygon fill="#181818" points="492.94,169.3069,483.1108,169.9292,488.5084,171.6222,486.8154,177.0198,492.94,169.3069" style="stroke:#181818;stroke-width:1;"/><text fill="#000000" font-family="sans-serif" font-size="13" lengthAdjust="spacing" textLength="95.1704" x="338.3542" y="171.3638">call createPoll,</text><text fill="#000000" font-family="sans-serif" font-size="13" lengthAdjust="spacing" textLength="105.8789" x="333" y="186.4966">vote, getResults</text></g><!--link Web3Client to FE--><g class="link" data-entity-1="Web3Client" data-entity-2="FE" data-source-line="42" data-uid="lnk22" id="link_Web3Client_FE"><path d="M468.76,151.2969 C418.82,151.2969 352.28,151.2969 308.14,151.2969" fill="none" id="Web3Client-to-FE" style="stroke:#181818;stroke-width:1;"/><polygon fill="#181818" points="302.14,151.2969,311.14,155.2969,307.14,151.2969,311.14,147.2969,302.14,151.2969" style="stroke:#181818;stroke-width:1;"/><text fill="#000000" font-family="sans-serif" font-size="13" lengthAdjust="spacing" textLength="47.9692" x="362" y="132.3638">results,</text><text fill="#000000" font-family="sans-serif" font-size="13" lengthAdjust="spacing" textLength="39.9458" x="366.0117" y="147.4966">status</text></g><!--link Web3Client to MetaMask--><g class="link" data-entity-1="Web3Client" data-entity-2="MetaMask" data-source-line="35" data-uid="lnk17" id="link_Web3Client_MetaMask"><path d="M580.31,146.3969 C625.54,141.5869 691.12,132.8069 747,118.2969 C763.17,114.0969 774.6889,110.3718 790.2689,104.4718" fill="none" id="Web3Client-to-MetaMask" style="stroke:#181818;stroke-width:1;"/><polygon fill="#181818" points="795.88,102.3469,786.0467,101.7934,791.2041,104.1176,788.8799,109.275,795.88,102.3469" style="stroke:#181818;stroke-width:1;"/><text fill="#000000" font-family="sans-serif" font-size="13" lengthAdjust="spacing" textLength="109.7573" x="625" y="99.3638">request account,</text><text fill="#000000" font-family="sans-serif" font-size="13" lengthAdjust="spacing" textLength="104.4443" x="627.6565" y="114.4966">sign transaction</text></g><!--link MetaMask to Web3Client--><g class="link" data-entity-1="MetaMask" data-entity-2="Web3Client" data-source-line="36" data-uid="lnk18" id="link_MetaMask_Web3Client"><path d="M795.69,70.1269 C746.17,64.1169 672.06,60.8469 612,82.2969 C583.42,92.4969 561.2957,112.0304 545.3857,128.8304" fill="none" id="MetaMask-to-Web3Client" style="stroke:#181818;stroke-width:1;"/><polygon fill="#181818" points="541.26,133.1869,550.3528,129.4026,544.6981,129.5565,544.5442,123.9017,541.26,133.1869" style="stroke:#181818;stroke-width:1;"/><text fill="#000000" font-family="sans-serif" font-size="13" lengthAdjust="spacing" textLength="104.6792" x="627.5" y="62.3638">signed tx / error</text></g><!--link Web3Client to Node--><g class="link" data-entity-1="Web3Client" data-entity-2="Node" data-source-line="39" data-uid="lnk19" id="link_Web3Client_Node"><path d="M575.26,169.4369 C587.27,173.7269 600.07,178.2269 612,182.2969 C645.88,193.8269 728.9846,220.511 788.1446,239.411" fill="none" id="Web3Client-to-Node" style="stroke:#181818;stroke-width:1;"/><polygon fill="#181818" points="793.86,241.2369,786.5042,234.6877,789.0972,239.7153,784.0696,242.3083,793.86,241.2369" style="stroke:#181818;stroke-width:1;"/><text fill="#000000" font-family="sans-serif" font-size="13" lengthAdjust="spacing" textLength="62.6831" x="648.2676" y="163.3638">JSON-RPC</text><text fill="#000000" font-family="sans-serif" font-size="13" lengthAdjust="spacing" textLength="133.2183" x="613" y="178.4966">(send tx, read state)</text></g><!--link Node to Web3Client--><g class="link" data-entity-1="Node" data-entity-2="Web3Client" data-source-line="41" data-uid="lnk21" id="link_Node_Web3Client"><path d="M786.47,276.9669 C736.32,287.2069 666.21,293.3469 612,266.2969 C571.32,245.9869 547.1921,201.9118 535.2421,174.9618" fill="none" id="Node-to-Web3Client" style="stroke:#181818;stroke-width:1;"/><polygon fill="#181818" points="532.81,169.4769,532.8015,179.3257,534.8368,174.0477,540.1148,176.0829,532.81,169.4769" style="stroke:#181818;stroke-width:1;"/><text fill="#000000" font-family="sans-serif" font-size="13" lengthAdjust="spacing" textLength="66.5044" x="646.5" y="247.3638">tx receipt,</text><text fill="#000000" font-family="sans-serif" font-size="13" lengthAdjust="spacing" textLength="66.3457" x="646.5793" y="262.4966">state data</text></g><!--link Node to Contract--><g class="link" data-entity-1="Node" data-entity-2="Contract" data-source-line="40" data-uid="lnk20" id="link_Node_Contract"><path d="M916.76,259.9269 C968.7,260.4469 1035.4003,261.1074 1086.8903,261.6174" fill="none" id="Node-to-Contract" style="stroke:#181818;stroke-width:1;"/><polygon fill="#181818" points="1092.89,261.6769,1083.9301,257.5879,1087.8902,261.6274,1083.8508,265.5875,1092.89,261.6769" style="stroke:#181818;stroke-width:1;"/><text fill="#000000" font-family="sans-serif" font-size="13" lengthAdjust="spacing" textLength="73.2266" x="974.2312" y="242.3638">execute tx,</text><text fill="#000000" font-family="sans-serif" font-size="13" lengthAdjust="spacing" textLength="103.689" x="959" y="257.4966">read/write state</text></g><!--link Truffle to NetDev--><g class="link" data-entity-1="Truffle" data-entity-2="NetDev" data-source-line="45" data-uid="lnk23" id="link_Truffle_NetDev"><path d="M557.54,406.2069 C573.84,406.6369 593.98,407.0869 612,407.2969 C672,407.9869 687.18,411.8869 747,407.2969 C756.7,406.5469 760.9122,406.2064 770.9322,404.8764" fill="none" id="Truffle-to-NetDev" style="stroke:#181818;stroke-width:1;"/><polygon fill="#181818" points="776.88,404.0869,767.4319,401.3059,771.9235,404.7448,768.4846,409.2363,776.88,404.0869" style="stroke:#181818;stroke-width:1;"/><text fill="#000000" font-family="sans-serif" font-size="13" lengthAdjust="spacing" textLength="43.7607" x="657.6575" y="388.3638">deploy</text><text fill="#000000" font-family="sans-serif" font-size="13" lengthAdjust="spacing" textLength="67.0757" x="646" y="403.4966">for testing</text></g><!--link Truffle to Node--><g class="link" data-entity-1="Truffle" data-entity-2="Node" data-source-line="46" data-uid="lnk24" id="link_Truffle_Node"><path d="M557.8,392.1269 C573.99,385.6469 593.95,377.8469 612,371.2969 C671.45,349.7169 690,353.6969 747,326.2969 C775.74,312.4769 801.2228,295.5555 821.5728,280.8855" fill="none" id="Truffle-to-Node" style="stroke:#181818;stroke-width:1;"/><polygon fill="#181818" points="826.44,277.3769,816.8001,279.3951,822.384,280.3008,821.4784,285.8846,826.44,277.3769" style="stroke:#181818;stroke-width:1;"/><text fill="#000000" font-family="sans-serif" font-size="13" lengthAdjust="spacing" textLength="43.7607" x="657.7278" y="307.3638">deploy</text><text fill="#000000" font-family="sans-serif" font-size="13" lengthAdjust="spacing" textLength="128.2163" x="615.5" y="322.4966">production contract</text></g><!--link Truffle to Contract--><g class="link" data-entity-1="Truffle" data-entity-2="Contract" data-source-line="47" data-uid="lnk25" id="link_Truffle_Contract"><path d="M557.76,419.8669 C630.59,450.5769 812.13,514.6969 950,459.2969 C1036.44,424.5569 1103.5941,339.1065 1134.7941,293.8565" fill="none" id="Truffle-to-Contract" style="stroke:#181818;stroke-width:1;"/><polygon fill="#181818" points="1138.2,288.9169,1129.7981,294.0557,1135.3618,293.0332,1136.3843,298.5969,1138.2,288.9169" style="stroke:#181818;stroke-width:1;"/><text fill="#000000" font-family="sans-serif" font-size="13" lengthAdjust="spacing" textLength="41.5518" x="830.823" y="440.3638">create</text><text fill="#000000" font-family="sans-serif" font-size="13" lengthAdjust="spacing" textLength="113.1978" x="795" y="455.4966">contract instance</text></g><!--SRC=[PLJ1Rjim3BthAuXSrc89Ycst7GPiQRTrGBiYITkBBwfCnq9aoPFekjcmVoybsNEItIJpaNnyZp9fCWYNgD2IbqR_nX8U76cxXVK-43QmWCzUrPfGKUSHpjQwQOskD9RdGXYi2CY1rzkQeDIUKTfP0272JjjMUjc0SathB3TOqvwRHOoqMuC7a53BqlMnQoLDE8nKpb9WMl3klH1IaVCmktF6mDAZvDiCP1ZFOvm7m1n89o6iAn5cNxphmn0Opl17mCGFPYla4d1_dJ1Vhuw3Z_Zq0RwZQOSQyRuqccFYxzZZ1adUoB0hxACq1Ya1nuyZw8fgzDWrS8lKExzB8FvuocR2SLe2nSCn9ch1kXLstKXFi7JHHvNxZfU9tYK-myOv4r8ytavQRdnNLIOt6yx7W6_IIbKZNC060zbXGXw4YyK-R-2UTGtG1GIcprgAmHrOB3wnfl0nsuNGCdMH79f23nhx50ZpmYeP29uPaCfUnqLB7ho5FeahE2LcJaPm1SKXKAb3r8RBn0fps2AjC7I6WZZ0n_JH7axs-AlZiK0gvJfBd1pqrWAhQ8DCgot-eV_h7A7yVEY5nK7lUH-PTYBCn9-CKpjLIsrFsqTFEVl7-kVjOdMtBEnPG1lBp9cEB24GZt8k4YpYHrSv1rzGTQmaOmiRmHUzvvUQKwQC8vPCZryWwZPD5u5GIfAdh98RFWis0BiG1ufB8vbVYQrn-oPk_x0eUPgq2PoRuuMjs7bYJNb9Zu5vx17MUbTs-UUXnhKzX1zCdStbzHW_wKZFAdm5]--></g></svg>