<svg xmlns="http://www.w3.org/2000/svg" width="1200" height="420" viewBox="0 0 1200 420">
  <style>
    .title { font: 700 22px Arial, sans-serif; fill: #1f2937; }
    .label { font: 600 16px Arial, sans-serif; fill: #111827; }
    .box { fill: #eef2ff; stroke: #6366f1; stroke-width: 2; rx: 12; }
    .arrow { stroke: #4b5563; stroke-width: 2.5; fill: none; marker-end: url(#arrow); }
  </style>
  <defs>
    <marker id="arrow" markerWidth="10" markerHeight="10" refX="9" refY="3" orient="auto">
      <path d="M0,0 L10,3 L0,6 Z" fill="#4b5563" />
    </marker>
  </defs>
  <text x="40" y="40" class="title">Iterative SDLC (Used in this Project)</text>

  <rect x="60" y="90" width="180" height="70" class="box" />
  <text x="90" y="132" class="label">Requirements</text>

  <rect x="280" y="90" width="180" height="70" class="box" />
  <text x="335" y="132" class="label">Design</text>

  <rect x="500" y="90" width="180" height="70" class="box" />
  <text x="535" y="132" class="label">Implementation</text>

  <rect x="720" y="90" width="180" height="70" class="box" />
  <text x="775" y="132" class="label">Testing</text>

  <rect x="940" y="90" width="180" height="70" class="box" />
  <text x="985" y="132" class="label">Deployment</text>

  <rect x="500" y="240" width="200" height="70" class="box" />
  <text x="545" y="282" class="label">Feedback</text>

  <path d="M240,125 L280,125" class="arrow" />
  <path d="M460,125 L500,125" class="arrow" />
  <path d="M680,125 L720,125" class="arrow" />
  <path d="M900,125 L940,125" class="arrow" />
  <path d="M1040,160 C1040,220 900,240 700,270" class="arrow" />
  <path d="M500,270 C320,270 170,220 150,160" class="arrow" />
</svg>
